<?xml version="1.0" encoding="iso-8859-1"?>
<!-- Generator: Adobe Illustrator 19.0.0, SVG Export Plug-In . SVG Version: 6.00 Build 0)  -->
<svg version="1.1" id="Capa_1" xmlns="http://www.w3.org/2000/svg" xmlns:xlink="http://www.w3.org/1999/xlink" x="0px" y="0px"
	 viewBox="0 0 512 512" style="enable-background:new 0 0 512 512;" xml:space="preserve">
<g>
	<path style="fill:#FDDB87;" d="M409.758,146.086c0.424-2.581,0.654-5.228,0.654-7.927c0-25.118-19.092-45.857-43.527-48.477
		c1.868-5.167,2.892-10.735,2.892-16.538c0-26.887-21.874-48.762-48.762-48.762c-11.497,0-22.069,4.009-30.415,10.689
		C284.668,14.829,265.944,0,243.81,0c-26.887,0-48.762,21.875-48.762,48.762c0,3.413,0.356,6.744,1.026,9.963
		c-4.206-1.187-8.636-1.836-13.217-1.836c-26.887,0-48.762,21.875-48.762,48.762c0,2.92,0.272,5.775,0.767,8.556
		c-32.395,3.668-57.656,31.227-57.656,64.587c0,35.85,29.166,65.016,65.016,65.016c21.24,0,40.132-10.24,52.004-26.04
		c8.157,6.14,18.293,9.786,29.266,9.786c16.606,0,31.293-8.35,40.103-21.068c8.695,8.026,20.302,12.941,33.04,12.941
		c7.249,0,14.128-1.602,20.317-4.452c6.19,2.85,13.068,4.452,20.317,4.452c0.073,0,0.144-0.005,0.216-0.005
		c9.4,14.65,25.82,24.386,44.482,24.386c29.128,0,52.825-23.697,52.825-52.825C434.794,172.047,424.772,155.412,409.758,146.086z"/>
	<path style="fill:#FDDB87;" d="M142.222,113.778c-35.85,0-65.016,29.166-65.016,65.016s29.166,65.016,65.016,65.016
		s65.016-29.166,65.016-65.016S178.072,113.778,142.222,113.778z"/>
	<path style="fill:#FDDB87;" d="M361.651,89.397c-26.888,0-48.762,21.875-48.762,48.762s21.874,48.762,48.762,48.762
		s48.762-21.875,48.762-48.762S388.539,89.397,361.651,89.397z"/>
	<path style="fill:#FDDB87;" d="M381.968,138.159c-29.128,0-52.825,23.697-52.825,52.825s23.697,52.825,52.825,52.825
		c29.128,0,52.825-23.697,52.825-52.825S411.096,138.159,381.968,138.159z"/>
	<path style="fill:#FDDB87;" d="M296.635,121.905c-26.888,0-48.762,21.875-48.762,48.762s21.874,48.762,48.762,48.762
		c26.888,0,48.762-21.875,48.762-48.762S323.523,121.905,296.635,121.905z"/>
	<path style="fill:#FDDB87;" d="M223.492,130.032c-26.887,0-48.762,21.875-48.762,48.762s21.875,48.762,48.762,48.762
		s48.762-21.875,48.762-48.762S250.379,130.032,223.492,130.032z"/>
	<path style="fill:#FDDB87;" d="M223.492,130.032c-10.973,0-21.109,3.646-29.266,9.786c-11.871-15.8-30.764-26.04-52.004-26.04
		c-35.85,0-65.016,29.166-65.016,65.016s29.166,65.016,65.016,65.016c21.24,0,40.132-10.24,52.004-26.04
		c8.157,6.14,18.293,9.786,29.266,9.786c26.887,0,48.762-21.875,48.762-48.762S250.379,130.032,223.492,130.032z"/>
	<path style="fill:#FDDB87;" d="M321.016,24.381c-26.888,0-48.762,21.875-48.762,48.762s21.874,48.762,48.762,48.762
		c26.888,0,48.762-21.875,48.762-48.762S347.904,24.381,321.016,24.381z"/>
	<path style="fill:#FDDB87;" d="M264.127,48.762c-26.887,0-48.762,21.875-48.762,48.762s21.875,48.762,48.762,48.762
		c26.888,0,48.762-21.875,48.762-48.762S291.015,48.762,264.127,48.762z"/>
	<path style="fill:#FDDB87;" d="M231.619,81.27c-26.887,0-48.762,21.875-48.762,48.762s21.875,48.762,48.762,48.762
		c26.888,0,48.762-21.875,48.762-48.762S258.507,81.27,231.619,81.27z"/>
	<path style="fill:#FDDB87;" d="M182.857,56.889c-26.887,0-48.762,21.875-48.762,48.762s21.875,48.762,48.762,48.762
		s48.762-21.875,48.762-48.762S209.744,56.889,182.857,56.889z"/>
</g>
<path style="fill:#F9CB2A;" d="M150.349,105.651c0-24.118,17.604-44.189,40.635-48.072c-2.645-0.446-5.358-0.69-8.127-0.69
	c-26.887,0-48.762,21.875-48.762,48.762c0,5.946,1.073,11.644,3.03,16.916l15.729-1.497
	C151.233,116.221,150.349,111.038,150.349,105.651z"/>
<path style="fill:#FDDB87;" d="M243.81,0c-26.887,0-48.762,21.875-48.762,48.762s21.875,48.762,48.762,48.762
	c26.888,0,48.762-21.875,48.762-48.762S270.698,0,243.81,0z"/>
<g>
	<path style="fill:#F9CB2A;" d="M134.095,130.032c21.24,0,40.132,10.24,52.004,26.04c8.157-6.14,18.293-9.786,29.266-9.786
		c26.887,0,48.762,21.875,48.762,48.762c0,4.592-0.652,9.032-1.844,13.247c6.25-8.197,9.971-18.421,9.971-29.501
		c0-26.887-21.875-48.762-48.762-48.762c-10.973,0-21.109,3.646-29.266,9.786c-11.871-15.8-30.764-26.04-52.004-26.04
		c-28.654,0-53.019,18.64-61.654,44.425C92.307,141.201,111.918,130.032,134.095,130.032z"/>
	<path style="fill:#F9CB2A;" d="M280.381,65.016c0-11.377,3.927-21.847,10.483-30.152c-11.322,8.937-18.61,22.769-18.61,38.279
		c0,25.118,19.092,45.857,43.527,48.477c1.106-3.06,2.507-5.98,4.174-8.722C297.447,108.587,280.381,88.762,280.381,65.016z"/>
	<path style="fill:#F9CB2A;" d="M329.143,138.159c0-6.209,1.174-12.147,3.301-17.612c-3.666,0.885-7.492,1.358-11.428,1.358
		c-1.769,0-3.514-0.101-5.235-0.284c-1.868,5.167-2.892,10.735-2.892,16.538c0,26.887,21.874,48.762,48.762,48.762
		c2.769,0,5.482-0.244,8.127-0.69C346.747,182.349,329.143,162.277,329.143,138.159z"/>
	<path style="fill:#F9CB2A;" d="M332.443,120.547c0.982-2.526,2.164-4.953,3.536-7.256c-2.235,0.316-4.516,0.488-6.836,0.488
		c-3.141,0-6.21-0.31-9.188-0.88c-1.667,2.742-3.068,5.662-4.174,8.722c1.721,0.185,3.466,0.284,5.235,0.284
		C324.951,121.905,328.777,121.431,332.443,120.547z"/>
	<path style="fill:#F9CB2A;" d="M207.238,48.762c0-24.822,18.647-45.357,42.667-48.368C247.907,0.144,245.875,0,243.81,0
		c-26.887,0-48.762,21.875-48.762,48.762s21.875,48.762,48.762,48.762c2.065,0,4.097-0.144,6.095-0.394
		C225.885,94.119,207.238,73.584,207.238,48.762z"/>
</g>
<path style="fill:#ECF0F0;" d="M353.524,227.556c0-17.954-14.554-32.508-32.508-32.508c-17.954,0-32.508,14.554-32.508,32.508
	h-65.016c0-17.954-14.554-32.508-32.508-32.508s-32.508,14.554-32.508,32.508H93.46l39.638,277.466
	c0.572,4.004,4.001,6.978,8.046,6.978h229.712c4.044,0,7.474-2.973,8.046-6.978l39.637-277.466H353.524z"/>
<g>
	<path style="fill:#ED3124;" d="M174.73,512l-16.254-284.444c0-17.954-14.554-32.508-32.508-32.508S93.46,209.602,93.46,227.556
		c0,1.871,0.167,3.702,0.47,5.487l39.161,271.989c0.576,4,4.003,6.969,8.044,6.969H174.73z"/>
	<path style="fill:#ED3124;" d="M256,195.048c-17.954,0-32.508,14.554-32.508,32.508V512h65.016V227.556
		C288.508,209.602,273.954,195.048,256,195.048z"/>
	<path style="fill:#ED3124;" d="M418.54,227.556c0-17.954-14.554-32.508-32.508-32.508s-32.508,14.554-32.508,32.508L337.27,512
		h33.594c4.041,0,7.468-2.969,8.044-6.969l39.161-271.989C418.373,231.257,418.54,229.427,418.54,227.556z"/>
</g>
<path style="fill:#F9CB2A;" d="M403.447,333.206h-38.223c-19.949-24.082-61.361-40.635-109.224-40.635
	s-89.275,16.553-109.224,40.635h-38.223l9.288,65.016h28.936c19.949,24.082,61.361,40.635,109.223,40.635
	s89.275-16.553,109.223-40.635h28.936L403.447,333.206z"/>
<ellipse style="fill:#F37121;" cx="256" cy="365.714" rx="97.524" ry="56.889"/>
<path style="fill:#F9CB2A;" d="M302.375,350.646c-1.088-3.348-4.209-5.616-7.729-5.616h-23.618l-7.299-22.462
	c-1.088-3.348-4.208-5.616-7.729-5.616c-3.521,0-6.642,2.267-7.729,5.616l-7.299,22.462h-23.619c-3.521,0-6.642,2.266-7.729,5.616
	c-1.088,3.348,0.104,7.017,2.952,9.086l19.108,13.883l-7.298,22.463c-1.088,3.348,0.104,7.017,2.952,9.086
	c2.849,2.069,6.706,2.069,9.553,0L256,391.281l19.109,13.883c1.424,1.035,3.1,1.552,4.777,1.552s3.353-0.517,4.777-1.552
	c2.849-2.069,4.041-5.738,2.952-9.086l-7.299-22.463l19.108-13.883C302.271,357.663,303.464,353.994,302.375,350.646z"/>
<g>
	<path style="fill:#974F2A;" d="M313.905,381.968h-1.016c-4.488,0-8.127-3.639-8.127-8.127c0-4.488,3.639-8.127,8.127-8.127h1.016
		c4.488,0,8.127,3.639,8.127,8.127C322.032,378.329,318.393,381.968,313.905,381.968z"/>
	<path style="fill:#974F2A;" d="M338.286,381.968h-1.016c-4.488,0-8.127-3.639-8.127-8.127c0-4.488,3.639-8.127,8.127-8.127h1.016
		c4.488,0,8.127,3.639,8.127,8.127C346.413,378.329,342.774,381.968,338.286,381.968z"/>
	<path style="fill:#974F2A;" d="M199.111,381.968h-1.016c-4.488,0-8.127-3.639-8.127-8.127c0-4.488,3.639-8.127,8.127-8.127h1.016
		c4.488,0,8.127,3.639,8.127,8.127C207.238,378.329,203.599,381.968,199.111,381.968z"/>
	<path style="fill:#974F2A;" d="M174.73,381.968h-1.016c-4.488,0-8.127-3.639-8.127-8.127c0-4.488,3.639-8.127,8.127-8.127h1.016
		c4.488,0,8.127,3.639,8.127,8.127C182.857,378.329,179.218,381.968,174.73,381.968z"/>
</g>
<g>
</g>
<g>
</g>
<g>
</g>
<g>
</g>
<g>
</g>
<g>
</g>
<g>
</g>
<g>
</g>
<g>
</g>
<g>
</g>
<g>
</g>
<g>
</g>
<g>
</g>
<g>
</g>
<g>
</g>
</svg>
